<?xml version="1.0" encoding="UTF-8" standalone="no"?>
<svg
   height="24px"
   viewBox="0 -960 960 960"
   width="24px"
   fill="#b4b4b4"
   version="1.1"
   id="svg1"
   sodipodi:docname="icon_play_selected.svg"
   inkscape:version="1.4.2 (f4327f4, 2025-05-13)"
   xmlns:inkscape="http://www.inkscape.org/namespaces/inkscape"
   xmlns:sodipodi="http://sodipodi.sourceforge.net/DTD/sodipodi-0.dtd"
   xmlns="http://www.w3.org/2000/svg"
   xmlns:svg="http://www.w3.org/2000/svg">
  <defs
     id="defs1" />
  <sodipodi:namedview
     id="namedview1"
     pagecolor="#ffffff"
     bordercolor="#000000"
     borderopacity="0.25"
     inkscape:showpageshadow="2"
     inkscape:pageopacity="0.0"
     inkscape:pagecheckerboard="0"
     inkscape:deskcolor="#d1d1d1"
     inkscape:zoom="33.625"
     inkscape:cx="12"
     inkscape:cy="12"
     inkscape:window-width="1920"
     inkscape:window-height="1009"
     inkscape:window-x="-8"
     inkscape:window-y="-8"
     inkscape:window-maximized="1"
     inkscape:current-layer="svg1" />
  <path
     d="M120-320v-80h320v80H120Zm0-160v-80h480v80H120Zm0-160v-80h480v80H120Zm520 520v-320l240 160-240 160Z"
     id="path1" />
  <path
     style="fill:#008080;stroke-width:0.0245353;stroke-linecap:square;stroke-linejoin:bevel;paint-order:stroke markers fill"
     d="M 3.0185874,11.003717 V 10.007435 H 8.9962825 14.973978 V 11.003717 12 H 8.9962825 3.0185874 Z"
     id="path2"
     transform="matrix(40,0,0,40,0,-960)" />
  <path
     style="fill:#1e8c80;stroke-width:0.0245353;stroke-linecap:square;stroke-linejoin:bevel;paint-order:stroke markers fill;fill-opacity:1"
     d="m 16.01487,16.994527 c 0,-3.15776 0.0075,-3.952649 0.03718,-3.934888 0.02045,0.01224 1.360378,0.904123 2.977626,1.981959 l 2.940452,1.959701 -2.962688,1.975187 c -1.629479,1.086353 -2.969411,1.975187 -2.977627,1.975187 -0.0082,0 -0.01494,-1.780716 -0.01494,-3.957146 z"
     id="path3"
     transform="matrix(40,0,0,40,0,-960)" />
  <path
     style="fill:#1e8ca0;fill-opacity:1;stroke-width:0.0245353;stroke-linecap:square;stroke-linejoin:bevel;paint-order:stroke markers fill"
     d="M 3.0185874,11.003717 V 10.007435 H 8.9962825 14.973978 V 11.003717 12 H 8.9962825 3.0185874 Z"
     id="path4"
     transform="matrix(40,0,0,40,0,-960)" />
  <path
     style="fill:#1e8c82;fill-opacity:1;stroke-width:0.0245353;stroke-linecap:square;stroke-linejoin:bevel;paint-order:stroke markers fill"
     d="M 3.0185874,11.003717 V 10.007435 H 8.9962825 14.973978 V 11.003717 12 H 8.9962825 3.0185874 Z"
     id="path5"
     transform="matrix(40,0,0,40,0,-960)" />
  <path
     style="fill:#1e8c82;fill-opacity:1;stroke-width:0.0245353;stroke-linecap:square;stroke-linejoin:bevel;paint-order:stroke markers fill"
     d="m 3.0185874,15.003717 v -0.981412 h 3.9851301 3.9851305 v 0.981412 0.981413 H 7.0037175 3.0185874 Z"
     id="path6"
     transform="matrix(40,0,0,40,0,-960)" />
</svg>
