<?xml version="1.0" encoding="UTF-8" standalone="no"?>
<svg
   height="24px"
   viewBox="0 -960 960 960"
   width="24px"
   fill="#b4b4b4"
   version="1.1"
   id="svg1"
   sodipodi:docname="icon_load.svg"
   inkscape:version="1.4.2 (f4327f4, 2025-05-13)"
   xmlns:inkscape="http://www.inkscape.org/namespaces/inkscape"
   xmlns:sodipodi="http://sodipodi.sourceforge.net/DTD/sodipodi-0.dtd"
   xmlns="http://www.w3.org/2000/svg"
   xmlns:svg="http://www.w3.org/2000/svg">
  <defs
     id="defs1" />
  <sodipodi:namedview
     id="namedview1"
     pagecolor="#ffffff"
     bordercolor="#000000"
     borderopacity="0.25"
     inkscape:showpageshadow="2"
     inkscape:pageopacity="0.0"
     inkscape:pagecheckerboard="0"
     inkscape:deskcolor="#d1d1d1"
     inkscape:zoom="33.625"
     inkscape:cx="12"
     inkscape:cy="12"
     inkscape:window-width="1920"
     inkscape:window-height="1009"
     inkscape:window-x="-8"
     inkscape:window-y="-8"
     inkscape:window-maximized="1"
     inkscape:current-layer="svg1" />
  <path
     d="M240-80q-33 0-56.5-23.5T160-160v-640q0-33 23.5-56.5T240-880h320l240 240v240h-80v-200H520v-200H240v640h360v80H240Zm638 15L760-183v89h-80v-226h226v80h-90l118 118-56 57Zm-638-95v-640 640Z"
     id="path1" />
  <path
     style="fill:#1e8c82;stroke-width:0.0245353;stroke-linecap:square;stroke-linejoin:bevel;paint-order:stroke markers fill;fill-opacity:1"
     d="M 5.739777,21.971314 C 5.2913627,21.909301 4.9613489,21.738227 4.6072923,21.384251 4.3127463,21.089772 4.1671568,20.844888 4.0672178,20.475836 4.0178352,20.293478 4.0148699,19.81336 4.0148699,12 c 0,-7.8133601 0.00297,-8.2934779 0.052348,-8.4758364 C 4.1684141,3.150469 4.3118064,2.9089841 4.6067402,2.6155618 4.8956374,2.3281451 5.1351272,2.1793415 5.472119,2.0778708 5.6398692,2.02736 5.8999083,2.0235991 9.813368,2.0150847 l 4.16281,-0.00906 3.011911,3.011801 L 20,8.02963 v 2.981467 2.981468 H 19.003717 18.007435 V 11.494424 8.9962825 H 15.509294 13.011152 V 6.4981413 4 H 9.5018587 5.9925651 v 8 8 h 4.4907059 4.490707 v 0.996283 0.996282 l -4.572491,-0.0045 c -2.5148699,-0.0025 -4.6126394,-0.01001 -4.66171,-0.0168 z"
     id="path2"
     transform="matrix(40,0,0,40,0,-960)" />
</svg>
