<?xml version="1.0" encoding="UTF-8" standalone="no"?>
<svg
   height="24px"
   viewBox="0 -960 960 960"
   width="24px"
   fill="#b4b4b4"
   version="1.1"
   id="svg1"
   sodipodi:docname="icon_play.svg"
   inkscape:version="1.4.2 (f4327f4, 2025-05-13)"
   xmlns:inkscape="http://www.inkscape.org/namespaces/inkscape"
   xmlns:sodipodi="http://sodipodi.sourceforge.net/DTD/sodipodi-0.dtd"
   xmlns="http://www.w3.org/2000/svg"
   xmlns:svg="http://www.w3.org/2000/svg">
  <defs
     id="defs1" />
  <sodipodi:namedview
     id="namedview1"
     pagecolor="#ffffff"
     bordercolor="#000000"
     borderopacity="0.25"
     inkscape:showpageshadow="2"
     inkscape:pageopacity="0.0"
     inkscape:pagecheckerboard="0"
     inkscape:deskcolor="#d1d1d1"
     inkscape:zoom="32"
     inkscape:cx="10.296875"
     inkscape:cy="11.359375"
     inkscape:window-width="1920"
     inkscape:window-height="1009"
     inkscape:window-x="-8"
     inkscape:window-y="-8"
     inkscape:window-maximized="1"
     inkscape:current-layer="svg1" />
  <path
     d="M320-200v-560l440 280-440 280Zm80-280Zm0 134 210-134-210-134v268Z"
     id="path1" />
  <path
     style="fill:#1e8c80;stroke-width:0.0245353;stroke-linecap:square;stroke-linejoin:bevel;paint-order:stroke markers fill;fill-opacity:1"
     d="M 10.007435,12 V 8.6725295 l 1.092937,0.6979628 c 0.601115,0.3838795 1.771474,1.1292147 2.600798,1.6563007 0.829323,0.527085 1.507861,0.965029 1.507861,0.973207 0,0.0082 -0.678538,0.446122 -1.507861,0.973207 -0.829324,0.527086 -1.999683,1.272421 -2.600798,1.656301 l -1.092937,0.697963 z"
     id="path2"
     transform="matrix(40,0,0,40,0,-960)" />
  <path
     style="fill:#1e8c80;fill-opacity:1;stroke-width:0.0245353;stroke-linecap:square;stroke-linejoin:bevel;paint-order:stroke markers fill"
     d="M 8.0148699,12 V 5.0348525 l 0.1163974,0.069934 C 8.4770263,5.3125271 18.956302,11.987502 18.956302,12 c 0,0.0125 -10.4792757,6.687473 -10.8250347,6.895213 l -0.1163974,0.06993 z M 12.65416,13.679852 C 14.092031,12.764112 15.268471,12.008178 15.268471,12 c 0,-0.01591 -5.207464,-3.3377808 -5.259699,-3.3551926 C 9.9872849,8.6376452 9.9776952,9.6730031 9.9776952,12 c 0,2.326997 0.00959,3.362355 0.031077,3.355193 0.01709,-0.0057 1.207516,-0.759601 2.645388,-1.675341 z"
     id="path3"
     transform="matrix(40,0,0,40,0,-960)" />
  <path
     style="fill:#1e8c80;fill-opacity:1;stroke-width:0.0245353;stroke-linecap:square;stroke-linejoin:bevel;paint-order:stroke markers fill"
     d=""
     id="path4"
     transform="matrix(40,0,0,40,0,-960)" />
  <path
     style="fill:#1e8c80;fill-opacity:1;stroke-width:0.0245353;stroke-linecap:square;stroke-linejoin:bevel;paint-order:stroke markers fill"
     d=""
     id="path5"
     transform="matrix(40,0,0,40,0,-960)" />
  <path
     style="fill:#78dc6e;fill-opacity:1;stroke-width:0.0257812;stroke-linecap:square;stroke-linejoin:bevel;paint-order:stroke markers fill"
     d="M 10.015625,12 V 8.6959369 l 0.08594,0.056475 c 0.04727,0.031061 1.070313,0.6841532 2.273438,1.4513151 2.637305,1.681655 2.796875,1.784137 2.796875,1.796273 0,0.01214 -0.15957,0.114618 -2.796875,1.796273 -1.203125,0.767162 -2.226172,1.420254 -2.273438,1.451315 l -0.08594,0.05647 z"
     id="path17"
     transform="matrix(40,0,0,40,0,-960)" />
</svg>
