<?xml version="1.0" encoding="UTF-8" standalone="no"?>
<svg
   height="20px"
   viewBox="0 -960 960 960"
   width="20px"
   fill="#828282"
   version="1.1"
   id="svg1"
   sodipodi:docname="icon_annotate.svg"
   inkscape:version="1.4.2 (f4327f4, 2025-05-13)"
   xmlns:inkscape="http://www.inkscape.org/namespaces/inkscape"
   xmlns:sodipodi="http://sodipodi.sourceforge.net/DTD/sodipodi-0.dtd"
   xmlns:xlink="http://www.w3.org/1999/xlink"
   xmlns="http://www.w3.org/2000/svg"
   xmlns:svg="http://www.w3.org/2000/svg">
  <defs
     id="defs1">
    <linearGradient
       id="swatch1"
       inkscape:swatch="solid">
      <stop
         style="stop-color:#000000;stop-opacity:1;"
         offset="0"
         id="stop1" />
    </linearGradient>
    <linearGradient
       inkscape:collect="always"
       xlink:href="#swatch1"
       id="linearGradient1"
       x1="-6"
       y1="-472.32075"
       x2="964"
       y2="-472.32075"
       gradientUnits="userSpaceOnUse" />
  </defs>
  <sodipodi:namedview
     id="namedview1"
     pagecolor="#ffffff"
     bordercolor="#000000"
     borderopacity="0.25"
     inkscape:showpageshadow="2"
     inkscape:pageopacity="0.0"
     inkscape:pagecheckerboard="0"
     inkscape:deskcolor="#d1d1d1"
     inkscape:zoom="40.35"
     inkscape:cx="10"
     inkscape:cy="10"
     inkscape:window-width="1920"
     inkscape:window-height="1009"
     inkscape:window-x="-8"
     inkscape:window-y="-8"
     inkscape:window-maximized="1"
     inkscape:current-layer="svg1" />
  <path
     d="M231-168q-103-3-170-41.5T-6-333q0-69 50-111t145-55q39-5 54-11t15-13q0-17-29.5-27.5T133-566l10-116q113 8 173 49t60 110q0 51-43 88.5T214-384q-50 10-76 22.5T112-332q0 18 31.5 30.5T235-286l-4 118Zm379-78L417-441l325-324q29-29 68-29t68 28l58 58q28 28 28 68t-28 69L610-246Zm-223 94q-30 6-50.5-14.5T321-217l36-173 203 204-173 34Z"
     id="path1"
     style="stroke:url(#linearGradient1);stroke-width:20.208;stroke-dasharray:none;paint-order:stroke markers fill" />
</svg>
