<?xml version="1.0" encoding="UTF-8" standalone="no"?>
<svg
   height="24px"
   viewBox="0 -960 960 960"
   width="24px"
   fill="#b4b4b4"
   version="1.1"
   id="svg1"
   sodipodi:docname="icon_backspace.svg"
   inkscape:version="1.4.2 (f4327f4, 2025-05-13)"
   xmlns:inkscape="http://www.inkscape.org/namespaces/inkscape"
   xmlns:sodipodi="http://sodipodi.sourceforge.net/DTD/sodipodi-0.dtd"
   xmlns="http://www.w3.org/2000/svg"
   xmlns:svg="http://www.w3.org/2000/svg">
  <defs
     id="defs1" />
  <sodipodi:namedview
     id="namedview1"
     pagecolor="#ffffff"
     bordercolor="#000000"
     borderopacity="0.25"
     inkscape:showpageshadow="2"
     inkscape:pageopacity="0.0"
     inkscape:pagecheckerboard="0"
     inkscape:deskcolor="#d1d1d1"
     inkscape:zoom="33.625"
     inkscape:cx="12"
     inkscape:cy="12"
     inkscape:window-width="1920"
     inkscape:window-height="1009"
     inkscape:window-x="-8"
     inkscape:window-y="-8"
     inkscape:window-maximized="1"
     inkscape:current-layer="svg1" />
  <path
     d="m456-320 104-104 104 104 56-56-104-104 104-104-56-56-104 104-104-104-56 56 104 104-104 104 56 56Zm-96 160q-19 0-36-8.5T296-192L80-480l216-288q11-15 28-23.5t36-8.5h440q33 0 56.5 23.5T880-720v480q0 33-23.5 56.5T800-160H360ZM180-480l180 240h440v-480H360L180-480Zm400 0Z"
     id="path1" />
  <path
     style="fill:#1e8c80;fill-opacity:1;stroke-width:0.0245353;stroke-linecap:square;stroke-linejoin:bevel;paint-order:stroke markers fill"
     d="M 8.7881041,19.970882 C 8.338408,19.920916 7.9169957,19.721705 7.6085891,19.413298 7.4532547,19.257963 2.0547158,12.052006 2.0547158,12 c 0,-0.05201 5.3985389,-7.2579634 5.5538733,-7.413298 0.2282174,-0.2282172 0.5643195,-0.4188329 0.911857,-0.5171473 0.184654,-0.052237 0.4522804,-0.054685 5.9776949,-0.054685 6.473364,0 5.91907,-0.018513 6.393572,0.2135435 0.171563,0.083903 0.284437,0.170731 0.492538,0.3788789 0.294578,0.2946448 0.44132,0.5342016 0.538866,0.8796965 0.05217,0.1847672 0.05458,0.4725462 0.05458,6.5130114 0,6.040465 -0.0024,6.328244 -0.05458,6.513011 -0.09755,0.345495 -0.244288,0.585052 -0.538866,0.879697 -0.208317,0.208364 -0.320797,0.294855 -0.492538,0.378735 -0.474802,0.231897 0.08987,0.212289 -6.244873,0.216845 -3.115985,0.0022 -5.7524162,-0.0056 -5.8587359,-0.01741 z M 20,12 V 5.9925651 l -5.509294,0.00129 -5.5092934,0.00129 -2.2304832,2.9777473 C 5.5241636,10.610645 4.5204461,11.972847 4.5204461,12 c 0,0.02715 1.0037175,1.389355 2.2304833,3.027116 l 2.2304832,2.977747 5.5092934,0.0013 L 20,18.007435 Z"
     id="path4"
     transform="matrix(40,0,0,40,0,-960)" />
</svg>
